<svg width="136" height="23" viewBox="0 0 136 23" fill="none" xmlns="http://www.w3.org/2000/svg">
<path d="M9.06841 22.7363V4.70588H11.2933C11.5263 4.70588 11.7168 4.89169 11.7225 5.1246C11.7335 5.57178 12.467 5.78001 12.8069 5.48928C13.0143 5.31194 13.2398 5.15655 13.4835 5.02313C14.2413 4.60013 15.0873 4.38863 16.0215 4.38863C17.3962 4.38863 18.5242 4.73231 19.4055 5.41969C20.3044 6.08944 20.9653 6.9795 21.3883 8.08988C21.8289 9.20025 22.0492 10.4164 22.0492 11.7383C22.0492 13.0601 21.8289 14.2763 21.3883 15.3866C20.9653 16.497 20.3044 17.3959 19.4055 18.0833C18.5242 18.753 17.3962 19.0879 16.0215 19.0879C15.1226 19.0879 14.303 18.894 13.5628 18.5063C12.9973 18.1966 11.8708 18.6097 11.8708 19.2544V21.7363C11.8708 22.2885 11.4231 22.7363 10.8708 22.7363H9.06841ZM15.5192 16.6556C16.6472 16.6556 17.5284 16.2238 18.1629 15.3602C18.815 14.4966 19.1411 13.2893 19.1411 11.7383C19.1411 10.1873 18.815 8.97994 18.1629 8.11631C17.5284 7.25269 16.6472 6.82088 15.5192 6.82088C14.3912 6.82088 13.5011 7.23506 12.849 8.06344C12.1969 8.89181 11.8708 10.1168 11.8708 11.7383C11.8708 13.3598 12.1969 14.5847 12.849 15.4131C13.5011 16.2414 14.3912 16.6556 15.5192 16.6556Z" fill="white"/>
<path d="M29.257 19.0879C27.8293 19.0879 26.7013 18.6208 25.873 17.6867C25.0446 16.7526 24.6304 15.4395 24.6304 13.7475V5.70588C24.6304 5.15359 25.0781 4.70588 25.6304 4.70588H26.4328C26.9851 4.70588 27.4328 5.15359 27.4328 5.70588V13.0337C27.4328 14.3027 27.6531 15.2368 28.0937 15.8361C28.5343 16.4353 29.2041 16.7349 30.103 16.7349C31.1252 16.7349 31.9183 16.4089 32.4823 15.7568C33.064 15.087 33.3548 14.1529 33.3548 12.9544V5.70588C33.3548 5.15359 33.8025 4.70588 34.3548 4.70588H35.1571C35.7094 4.70588 36.1571 5.15359 36.1571 5.70588V17.7706C36.1571 18.3229 35.7094 18.7706 35.1571 18.7706H33.9412C33.7188 18.7706 33.5378 18.5917 33.5352 18.3693C33.5302 17.9315 32.7612 17.7235 32.4365 18.0171C31.647 18.731 30.5872 19.0879 29.257 19.0879Z" fill="white"/>
<path d="M42.9235 18.7706C41.9894 18.7706 41.2403 18.5327 40.6763 18.0568C40.1299 17.5809 39.8567 16.8231 39.8567 15.7832V0.999999C39.8567 0.447714 40.3045 0 40.8567 0H41.6591C42.2114 0 42.6591 0.447715 42.6591 1V15.5188C42.6591 16.1533 42.9852 16.4706 43.6373 16.4706H43.7477C44.3 16.4706 44.7477 16.9183 44.7477 17.4706V17.7706C44.7477 18.3229 44.3 18.7706 43.7477 18.7706H42.9235Z" fill="white"/>
<path d="M52.2927 19.0879C50.2482 19.0879 48.7148 18.6473 47.6926 17.766C46.9304 17.0958 46.423 16.2885 46.1703 15.344C46.0245 14.7992 46.4665 14.3078 47.0299 14.2819L47.9893 14.2379C48.4978 14.2146 48.9235 14.5874 49.1249 15.0549C49.2919 15.4426 49.5283 15.7734 49.834 16.0476C50.3451 16.5058 51.1647 16.7349 52.2927 16.7349C53.1739 16.7349 53.8437 16.5939 54.3019 16.3119C54.7778 16.0299 55.0158 15.5805 55.0158 14.9636C55.0158 14.6111 54.9364 14.3203 54.7778 14.0912C54.6192 13.8621 54.3108 13.6682 53.8525 13.5096C53.3943 13.3333 52.7157 13.1659 51.8168 13.0073C50.4421 12.7429 49.3669 12.4344 48.5914 12.0819C47.8336 11.7118 47.296 11.2624 46.9788 10.7336C46.6615 10.1873 46.5029 9.52631 46.5029 8.75081C46.5029 7.48181 46.9876 6.44194 47.9569 5.63119C48.9263 4.80281 50.3275 4.38863 52.1605 4.38863C53.4471 4.38863 54.5046 4.60894 55.333 5.04956C56.1614 5.47256 56.7871 6.03656 57.2101 6.74156C57.4484 7.13873 57.6335 7.55267 57.7655 7.9834C57.9335 8.53144 57.4959 9.04166 56.9236 9.07316L56.0701 9.12014C55.5279 9.14999 55.0824 8.72624 54.859 8.23132C54.7316 7.94903 54.5547 7.69038 54.3284 7.45538C53.8878 6.9795 53.1475 6.74156 52.1076 6.74156C51.1911 6.74156 50.5126 6.91781 50.0719 7.27031C49.6313 7.62281 49.411 8.08106 49.411 8.64506C49.411 9.26194 49.6137 9.729 50.0191 10.0463C50.4421 10.3459 51.2264 10.5838 52.372 10.7601C53.7996 10.9892 54.91 11.2888 55.7031 11.6589C56.5139 12.0114 57.0867 12.4609 57.4216 13.0073C57.7564 13.536 57.9239 14.1793 57.9239 14.9372C57.9239 16.2591 57.4039 17.2813 56.3641 18.0039C55.3242 18.7266 53.9671 19.0879 52.2927 19.0879Z" fill="white"/>
<path d="M66.3401 19.0879C64.9653 19.0879 63.7757 18.7883 62.771 18.189C61.784 17.5721 61.0173 16.7173 60.471 15.6246C59.9422 14.5142 59.6778 13.2188 59.6778 11.7383C59.6778 10.2578 59.9422 8.97113 60.471 7.87838C61.0173 6.768 61.784 5.91319 62.771 5.31394C63.758 4.69706 64.9213 4.38863 66.2608 4.38863C67.5298 4.38863 68.649 4.68825 69.6183 5.2875C70.5877 5.86913 71.3368 6.71513 71.8655 7.8255C72.4119 8.93588 72.6851 10.2754 72.6851 11.844C72.6851 12.2382 72.3655 12.5578 71.9713 12.5578H63.6386C63.0662 12.5578 62.5997 13.0406 62.7079 13.6027C62.8744 14.4677 63.195 15.1505 63.6699 15.651C64.3397 16.3384 65.2385 16.6821 66.3665 16.6821C67.1949 16.6821 67.8735 16.497 68.4022 16.1269C68.7448 15.8838 69.0249 15.5853 69.2428 15.2314C69.4792 14.8473 69.8778 14.5605 70.3279 14.5891L71.2412 14.6473C71.8759 14.6877 72.3171 15.3089 72.0272 15.8749C71.6171 16.6756 71.0345 17.35 70.2793 17.8982C69.2042 18.6913 67.8911 19.0879 66.3401 19.0879ZM62.8278 9.32905C62.6444 9.90496 63.1226 10.4428 63.727 10.4428H68.6512C69.2311 10.4428 69.7029 9.94631 69.5658 9.38281C69.3885 8.6542 69.0799 8.08222 68.6402 7.66688C68.0057 7.06763 67.2125 6.768 66.2608 6.768C65.2562 6.768 64.4278 7.08525 63.7757 7.71975C63.3552 8.1285 63.0393 8.66494 62.8278 9.32905Z" fill="white"/>
<path d="M78.4439 18.7706C78.0038 18.7706 77.6154 18.4829 77.4873 18.0619L73.8134 5.99718C73.6178 5.35472 74.0984 4.70588 74.77 4.70588H75.5919C76.0424 4.70588 76.4373 5.0071 76.5563 5.44158L78.4167 12.2302C78.6846 13.2077 80.0694 13.2123 80.3438 12.2366L82.2567 5.43513C82.378 5.00385 82.7713 4.70588 83.2193 4.70588H84.348C84.796 4.70588 85.1894 5.00385 85.3107 5.43513L87.2278 12.2516C87.5019 13.2262 88.8845 13.2231 89.1543 12.2473L91.0363 5.43943C91.1561 5.00602 91.5504 4.70588 92.0001 4.70588H92.8238C93.4954 4.70588 93.976 5.35472 93.7804 5.99718L90.1065 18.0619C89.9783 18.4829 89.59 18.7706 89.1499 18.7706H87.4925C87.0491 18.7706 86.6586 18.4786 86.5333 18.0533L84.7429 11.9788C84.461 11.0224 83.1064 11.0224 82.8245 11.9788L81.0341 18.0533C80.9087 18.4786 80.5183 18.7706 80.0749 18.7706H78.4439Z" fill="white"/>
<path d="M99.7701 19.0879C98.3072 19.0879 97.1352 18.753 96.2539 18.0833C95.3903 17.4135 94.9585 16.4706 94.9585 15.2544C94.9585 14.0559 95.3198 13.113 96.0424 12.4256C96.7827 11.7383 97.9195 11.2448 99.4529 10.9451L103.479 10.1751C103.95 10.085 104.305 9.66967 104.235 9.19494C103.996 7.57698 103.002 6.768 101.251 6.768C100.352 6.768 99.6467 6.97069 99.1356 7.37606C98.8158 7.62966 98.5582 7.95224 98.3626 8.3438C98.1477 8.77397 97.7306 9.09862 97.2507 9.0678L96.3233 9.00824C95.7243 8.96978 95.2851 8.41024 95.4991 7.84946C95.8452 6.9427 96.3964 6.19447 97.1528 5.60475C98.2103 4.794 99.5762 4.38863 101.251 4.38863C103.154 4.38863 104.599 4.89975 105.586 5.922C106.591 6.92663 107.093 8.34544 107.093 10.1784V15.651C107.093 15.9425 107.133 16.1605 107.213 16.3051C107.236 16.3465 107.268 16.3829 107.306 16.4113C107.429 16.5037 107.605 16.5499 107.834 16.5499C108.111 16.5499 108.336 16.7748 108.336 17.0522V17.9622C108.336 18.4337 108.004 18.8364 107.532 18.8474C107.46 18.8491 107.384 18.8499 107.305 18.8499C106.512 18.8499 105.877 18.6825 105.401 18.3476C104.92 18.0087 103.702 17.7596 103.216 18.0923C103.057 18.2013 102.886 18.304 102.705 18.4005C101.841 18.8588 100.863 19.0879 99.7701 19.0879ZM100.22 16.8671C101.489 16.8671 102.484 16.5058 103.207 15.7832C103.93 15.0606 104.291 14.1441 104.291 13.0337C104.291 12.5674 103.866 12.2165 103.408 12.3046L100.167 12.9279C99.3207 13.0866 98.7214 13.3421 98.3689 13.6946C98.034 14.0295 97.8666 14.4613 97.8666 14.9901C97.8666 15.5893 98.0693 16.0564 98.4747 16.3913C98.8977 16.7085 99.4793 16.8671 100.22 16.8671Z" fill="white"/>
<path d="M114.22 18.7706C113.799 18.7706 113.424 18.508 113.28 18.1132L108.881 6.04847C108.643 5.39614 109.126 4.70588 109.82 4.70588H110.664C111.091 4.70588 111.471 4.97772 111.61 5.38229L114.266 13.1486C114.574 14.0504 115.85 14.0504 116.158 13.1486L118.814 5.38229C118.952 4.97772 119.333 4.70588 119.76 4.70588H120.628C121.323 4.70588 121.806 5.39743 121.567 6.05003L117.144 18.1148C117 18.5087 116.625 18.7706 116.205 18.7706H114.22Z" fill="white"/>
<path d="M129.388 19.0879C128.014 19.0879 126.824 18.7883 125.819 18.189C124.832 17.5721 124.066 16.7173 123.519 15.6246C122.99 14.5142 122.726 13.2188 122.726 11.7383C122.726 10.2578 122.99 8.97113 123.519 7.87838C124.066 6.768 124.832 5.91319 125.819 5.31394C126.806 4.69706 127.97 4.38863 129.309 4.38863C130.578 4.38863 131.697 4.68825 132.667 5.2875C133.636 5.86913 134.385 6.71513 134.914 7.8255C135.46 8.93588 135.733 10.2754 135.733 11.844C135.733 12.2382 135.414 12.5578 135.02 12.5578H126.687C126.114 12.5578 125.648 13.0406 125.756 13.6027C125.923 14.4677 126.243 15.1505 126.718 15.651C127.388 16.3384 128.287 16.6821 129.415 16.6821C130.243 16.6821 130.922 16.497 131.451 16.1269C131.793 15.8838 132.073 15.5853 132.291 15.2314C132.527 14.8473 132.926 14.5605 133.376 14.5891L134.289 14.6473C134.924 14.6877 135.365 15.3089 135.075 15.8749C134.665 16.6756 134.083 17.35 133.328 17.8982C132.252 18.6913 130.939 19.0879 129.388 19.0879ZM125.876 9.32905C125.693 9.90496 126.171 10.4428 126.775 10.4428H131.699C132.279 10.4428 132.751 9.94631 132.614 9.38281C132.437 8.6542 132.128 8.08222 131.688 7.66688C131.054 7.06763 130.261 6.768 129.309 6.768C128.304 6.768 127.476 7.08525 126.824 7.71975C126.403 8.1285 126.088 8.66494 125.876 9.32905Z" fill="white"/>
<path fill-rule="evenodd" clip-rule="evenodd" d="M9.09037 22.7423C8.88534 22.7423 8.68871 22.6609 8.54374 22.5159C8.39876 22.3709 8.31731 22.1743 8.31731 21.9692L7.6056 18.1657C7.02571 15.0667 7.04358 11.8853 7.65825 8.79296L8.31731 5.47728C8.31731 5.27225 8.39876 5.07562 8.54373 4.93064C8.68871 4.78567 8.88534 4.70422 9.09037 4.70422C9.2954 4.70422 9.49203 4.78567 9.63701 4.93064C9.78198 5.07562 9.86343 5.27225 9.86343 5.47728L9.86343 21.9692C9.86343 22.1743 9.78198 22.3709 9.63701 22.5159C9.49203 22.6609 9.2954 22.7423 9.09037 22.7423ZM0.844389 15.5271C0.63936 15.5271 0.442729 15.4456 0.297751 15.3006C0.152774 15.1557 0.0713277 14.959 0.0713277 14.754C-0.020304 14.0961 -0.0236646 13.4288 0.0613351 12.77L0.0713275 12.6925C0.0713275 12.4875 0.152774 12.2909 0.297751 12.1459C0.442728 12.0009 0.63936 11.9195 0.844388 11.9195C1.04942 11.9195 1.24605 12.0009 1.39103 12.1459C1.536 12.2909 1.61745 12.4875 1.61745 12.6925L1.61745 14.754C1.61745 14.959 1.536 15.1557 1.39103 15.3006C1.24605 15.4456 1.04942 15.5271 0.844389 15.5271Z" fill="white"/>
<path d="M4.24662 17.8961C4.39159 18.041 4.58822 18.1225 4.79325 18.1225C4.99828 18.1225 5.19491 18.041 5.33989 17.8961C5.48486 17.7511 5.56631 17.5545 5.56631 17.3494L5.56631 9.7793C5.56631 9.57427 5.48486 9.37764 5.33989 9.23266C5.19491 9.08769 4.99828 9.00624 4.79325 9.00624C4.58822 9.00624 4.39159 9.08769 4.24661 9.23266C4.10164 9.37764 4.02019 9.57427 4.02019 9.7793L3.70042 11.0927C3.31917 12.6586 3.31041 14.292 3.67487 15.8619L4.02019 17.3494C4.02019 17.5545 4.10164 17.7511 4.24662 17.8961Z" fill="white"/>
</svg>
